<mxfile host="app.diagrams.net" modified="2020-07-17T07:46:02.876Z" agent="5.0 (Macintosh; Intel Mac OS X 10_15_5) AppleWebKit/605.1.15 (KHTML, like Gecko) Version/13.1.1 Safari/605.1.15" etag="asxrMA4cX-RG3ByuKm2K" version="13.4.5" type="github" pages="2">
  <diagram name="Page-1" id="d66fe2ae-3e9f-cf2f-6d29-e24063ad5d60">
    <mxGraphModel dx="1341" dy="958" grid="1" gridSize="10" guides="1" tooltips="1" connect="1" arrows="1" fold="1" page="1" pageScale="1" pageWidth="1169" pageHeight="827" background="#ffffff" math="0" shadow="0">
      <root>
        <mxCell id="0" />
        <mxCell id="1" parent="0" />
        <mxCell id="JqamebFPjlk-KxzxT9SR-39" value="" style="group;aspect=fixed;" vertex="1" connectable="0" parent="1">
          <mxGeometry x="68" y="190" width="1033.47" height="380" as="geometry" />
        </mxCell>
        <mxCell id="JqamebFPjlk-KxzxT9SR-3" value="Client1" style="points=[[0.13,0.02,0],[0.5,0,0],[0.87,0.02,0],[0.885,0.4,0],[0.985,0.985,0],[0.5,1,0],[0.015,0.985,0],[0.115,0.4,0]];verticalLabelPosition=bottom;html=1;verticalAlign=top;aspect=fixed;align=center;pointerEvents=1;shape=mxgraph.cisco19.laptop;fillColor=#005073;strokeColor=none;" vertex="1" parent="JqamebFPjlk-KxzxT9SR-39">
          <mxGeometry x="651.8810769230769" width="79.49765153966588" height="55.64835607776612" as="geometry" />
        </mxCell>
        <mxCell id="JqamebFPjlk-KxzxT9SR-7" value="CTC" style="points=[[0,0.64,0],[0.2,0.15,0],[0.4,0.01,0],[0.79,0.25,0],[1,0.65,0],[0.8,0.86,0],[0.41,1,0],[0.16,0.86,0]];verticalLabelPosition=bottom;html=1;verticalAlign=top;aspect=fixed;align=center;pointerEvents=1;shape=mxgraph.cisco19.cloud;fillColor=#6B6B6B;strokeColor=none;" vertex="1" parent="JqamebFPjlk-KxzxT9SR-39">
          <mxGeometry y="54.05857740585773" width="79.49765153966588" height="47.69859092379953" as="geometry" />
        </mxCell>
        <mxCell id="JqamebFPjlk-KxzxT9SR-8" value="CUC" style="points=[[0,0.64,0],[0.2,0.15,0],[0.4,0.01,0],[0.79,0.25,0],[1,0.65,0],[0.8,0.86,0],[0.41,1,0],[0.16,0.86,0]];verticalLabelPosition=bottom;html=1;verticalAlign=top;aspect=fixed;align=center;pointerEvents=1;shape=mxgraph.cisco19.cloud;fillColor=#6B6B6B;strokeColor=none;" vertex="1" parent="JqamebFPjlk-KxzxT9SR-39">
          <mxGeometry y="263.93305439330544" width="79.49765153966588" height="47.69859092379953" as="geometry" />
        </mxCell>
        <mxCell id="2" value="CMCC" style="points=[[0,0.64,0],[0.2,0.15,0],[0.4,0.01,0],[0.79,0.25,0],[1,0.65,0],[0.8,0.86,0],[0.41,1,0],[0.16,0.86,0]];verticalLabelPosition=bottom;html=1;verticalAlign=top;aspect=fixed;align=center;pointerEvents=1;shape=mxgraph.cisco19.cloud;fillColor=#6B6B6B;strokeColor=none;" vertex="1" parent="JqamebFPjlk-KxzxT9SR-39">
          <mxGeometry y="158.99581589958157" width="79.49765153966588" height="47.69859092379953" as="geometry" />
        </mxCell>
        <mxCell id="JqamebFPjlk-KxzxT9SR-33" style="edgeStyle=none;rounded=0;orthogonalLoop=1;jettySize=auto;html=1;entryX=1;entryY=0.65;entryDx=0;entryDy=0;entryPerimeter=0;endArrow=none;endFill=0;strokeWidth=1;" edge="1" parent="JqamebFPjlk-KxzxT9SR-39" source="JqamebFPjlk-KxzxT9SR-10" target="JqamebFPjlk-KxzxT9SR-8">
          <mxGeometry relative="1" as="geometry" />
        </mxCell>
        <mxCell id="JqamebFPjlk-KxzxT9SR-34" style="edgeStyle=none;rounded=0;orthogonalLoop=1;jettySize=auto;html=1;entryX=1;entryY=0.65;entryDx=0;entryDy=0;entryPerimeter=0;endArrow=none;endFill=0;strokeWidth=1;exitX=0;exitY=0.5;exitDx=0;exitDy=0;exitPerimeter=0;" edge="1" parent="JqamebFPjlk-KxzxT9SR-39" source="JqamebFPjlk-KxzxT9SR-10" target="JqamebFPjlk-KxzxT9SR-7">
          <mxGeometry relative="1" as="geometry" />
        </mxCell>
        <mxCell id="JqamebFPjlk-KxzxT9SR-37" style="edgeStyle=none;rounded=0;orthogonalLoop=1;jettySize=auto;html=1;entryX=1;entryY=0.65;entryDx=0;entryDy=0;entryPerimeter=0;endArrow=none;endFill=0;strokeWidth=1;exitX=0;exitY=0.5;exitDx=0;exitDy=0;exitPerimeter=0;" edge="1" parent="JqamebFPjlk-KxzxT9SR-39" source="JqamebFPjlk-KxzxT9SR-10" target="2">
          <mxGeometry relative="1" as="geometry" />
        </mxCell>
        <mxCell id="JqamebFPjlk-KxzxT9SR-10" value="SuperAD02" style="points=[[0.015,0.015,0],[0.985,0.015,0],[0.985,0.985,0],[0.015,0.985,0],[0.25,0,0],[0.5,0,0],[0.75,0,0],[1,0.25,0],[1,0.5,0],[1,0.75,0],[0.75,1,0],[0.5,1,0],[0.25,1,0],[0,0.75,0],[0,0.5,0],[0,0.25,0]];verticalLabelPosition=bottom;html=1;verticalAlign=top;align=center;pointerEvents=1;shape=mxgraph.cisco19.rect;prIcon=content_router;fillColor=#FAFAFA;strokeColor=#005073;" vertex="1" parent="JqamebFPjlk-KxzxT9SR-39">
          <mxGeometry x="270.29215384615384" y="254.39330543933053" width="79.49769230769232" height="79.49790794979079" as="geometry" />
        </mxCell>
        <mxCell id="JqamebFPjlk-KxzxT9SR-27" style="edgeStyle=none;rounded=0;orthogonalLoop=1;jettySize=auto;html=1;entryX=0.5;entryY=1;entryDx=0;entryDy=0;entryPerimeter=0;endArrow=none;endFill=0;strokeWidth=1;exitX=1;exitY=0.5;exitDx=0;exitDy=0;exitPerimeter=0;" edge="1" parent="JqamebFPjlk-KxzxT9SR-39" source="JqamebFPjlk-KxzxT9SR-11" target="JqamebFPjlk-KxzxT9SR-3">
          <mxGeometry relative="1" as="geometry" />
        </mxCell>
        <mxCell id="JqamebFPjlk-KxzxT9SR-31" style="edgeStyle=none;rounded=0;orthogonalLoop=1;jettySize=auto;html=1;entryX=1;entryY=0.5;entryDx=0;entryDy=0;entryPerimeter=0;endArrow=none;endFill=0;strokeWidth=1;exitX=0;exitY=0.5;exitDx=0;exitDy=0;exitPerimeter=0;" edge="1" parent="JqamebFPjlk-KxzxT9SR-39" source="JqamebFPjlk-KxzxT9SR-11" target="JqamebFPjlk-KxzxT9SR-10">
          <mxGeometry relative="1" as="geometry" />
        </mxCell>
        <mxCell id="JqamebFPjlk-KxzxT9SR-11" value="华为S5735S" style="points=[[0.015,0.015,0],[0.985,0.015,0],[0.985,0.985,0],[0.015,0.985,0],[0.25,0,0],[0.5,0,0],[0.75,0,0],[1,0.25,0],[1,0.5,0],[1,0.75,0],[0.75,1,0],[0.5,1,0],[0.25,1,0],[0,0.75,0],[0,0.5,0],[0,0.25,0]];verticalLabelPosition=bottom;html=1;verticalAlign=top;aspect=fixed;align=center;pointerEvents=1;shape=mxgraph.cisco19.rect;prIcon=l3_switch;fillColor=#FAFAFA;strokeColor=#005073;" vertex="1" parent="JqamebFPjlk-KxzxT9SR-39">
          <mxGeometry x="461.08661538461536" y="144.68619246861923" width="95.39718184759906" height="95.39718184759906" as="geometry" />
        </mxCell>
        <mxCell id="JqamebFPjlk-KxzxT9SR-12" value="Client2" style="points=[[0.13,0.02,0],[0.5,0,0],[0.87,0.02,0],[0.885,0.4,0],[0.985,0.985,0],[0.5,1,0],[0.015,0.985,0],[0.115,0.4,0]];verticalLabelPosition=bottom;html=1;verticalAlign=top;aspect=fixed;align=center;pointerEvents=1;shape=mxgraph.cisco19.laptop;fillColor=#005073;strokeColor=none;" vertex="1" parent="JqamebFPjlk-KxzxT9SR-39">
          <mxGeometry x="794.9769230769232" width="79.49765153966588" height="55.64835607776612" as="geometry" />
        </mxCell>
        <mxCell id="JqamebFPjlk-KxzxT9SR-28" style="edgeStyle=none;rounded=0;orthogonalLoop=1;jettySize=auto;html=1;entryX=0.5;entryY=1;entryDx=0;entryDy=0;entryPerimeter=0;endArrow=none;endFill=0;strokeWidth=1;exitX=1;exitY=0.5;exitDx=0;exitDy=0;exitPerimeter=0;" edge="1" parent="JqamebFPjlk-KxzxT9SR-39" source="JqamebFPjlk-KxzxT9SR-11" target="JqamebFPjlk-KxzxT9SR-12">
          <mxGeometry relative="1" as="geometry" />
        </mxCell>
        <mxCell id="JqamebFPjlk-KxzxT9SR-13" value="Client3" style="points=[[0.13,0.02,0],[0.5,0,0],[0.87,0.02,0],[0.885,0.4,0],[0.985,0.985,0],[0.5,1,0],[0.015,0.985,0],[0.115,0.4,0]];verticalLabelPosition=bottom;html=1;verticalAlign=top;aspect=fixed;align=center;pointerEvents=1;shape=mxgraph.cisco19.laptop;fillColor=#005073;strokeColor=none;" vertex="1" parent="JqamebFPjlk-KxzxT9SR-39">
          <mxGeometry x="953.9723076923078" width="79.49765153966588" height="55.64835607776612" as="geometry" />
        </mxCell>
        <mxCell id="JqamebFPjlk-KxzxT9SR-29" style="edgeStyle=none;rounded=0;orthogonalLoop=1;jettySize=auto;html=1;entryX=0.5;entryY=1;entryDx=0;entryDy=0;entryPerimeter=0;endArrow=none;endFill=0;strokeWidth=1;exitX=1;exitY=0.5;exitDx=0;exitDy=0;exitPerimeter=0;" edge="1" parent="JqamebFPjlk-KxzxT9SR-39" source="JqamebFPjlk-KxzxT9SR-11" target="JqamebFPjlk-KxzxT9SR-13">
          <mxGeometry relative="1" as="geometry" />
        </mxCell>
        <mxCell id="JqamebFPjlk-KxzxT9SR-18" value="Server2" style="aspect=fixed;pointerEvents=1;shadow=0;dashed=0;html=1;strokeColor=none;labelPosition=center;verticalLabelPosition=bottom;verticalAlign=top;align=center;shape=mxgraph.mscae.enterprise.application_server2;fillColor=#005073;" vertex="1" parent="JqamebFPjlk-KxzxT9SR-39">
          <mxGeometry x="806.1066000000001" y="300.5020920502092" width="68.36798032411265" height="79.49765153966588" as="geometry" />
        </mxCell>
        <mxCell id="JqamebFPjlk-KxzxT9SR-25" style="edgeStyle=none;rounded=0;orthogonalLoop=1;jettySize=auto;html=1;entryX=0.02;entryY=0.01;entryDx=0;entryDy=0;entryPerimeter=0;endArrow=none;endFill=0;strokeWidth=1;exitX=1;exitY=0.5;exitDx=0;exitDy=0;exitPerimeter=0;" edge="1" parent="JqamebFPjlk-KxzxT9SR-39" source="JqamebFPjlk-KxzxT9SR-11" target="JqamebFPjlk-KxzxT9SR-18">
          <mxGeometry relative="1" as="geometry" />
        </mxCell>
        <mxCell id="JqamebFPjlk-KxzxT9SR-20" value="Server1" style="aspect=fixed;pointerEvents=1;shadow=0;dashed=0;html=1;strokeColor=none;labelPosition=center;verticalLabelPosition=bottom;verticalAlign=top;align=center;shape=mxgraph.mscae.enterprise.application_server2;fillColor=#005073;" vertex="1" parent="JqamebFPjlk-KxzxT9SR-39">
          <mxGeometry x="651.8810769230769" y="300.5020920502092" width="68.36798032411265" height="79.49765153966588" as="geometry" />
        </mxCell>
        <mxCell id="JqamebFPjlk-KxzxT9SR-24" style="rounded=0;orthogonalLoop=1;jettySize=auto;html=1;entryX=0.02;entryY=0.01;entryDx=0;entryDy=0;entryPerimeter=0;endArrow=none;endFill=0;strokeWidth=1;exitX=1;exitY=0.5;exitDx=0;exitDy=0;exitPerimeter=0;" edge="1" parent="JqamebFPjlk-KxzxT9SR-39" source="JqamebFPjlk-KxzxT9SR-11" target="JqamebFPjlk-KxzxT9SR-20">
          <mxGeometry relative="1" as="geometry" />
        </mxCell>
        <mxCell id="JqamebFPjlk-KxzxT9SR-22" value="Server3&lt;br&gt;DNS&lt;br&gt;NTP&lt;br&gt;Syslog&lt;br&gt;ACS" style="aspect=fixed;pointerEvents=1;shadow=0;dashed=0;html=1;strokeColor=none;labelPosition=center;verticalLabelPosition=bottom;verticalAlign=top;align=center;shape=mxgraph.mscae.enterprise.application_server2;fillColor=#005073;" vertex="1" parent="JqamebFPjlk-KxzxT9SR-39">
          <mxGeometry x="965.1019846153847" y="300.5020920502092" width="68.36798032411265" height="79.49765153966588" as="geometry" />
        </mxCell>
        <mxCell id="JqamebFPjlk-KxzxT9SR-26" style="edgeStyle=none;rounded=0;orthogonalLoop=1;jettySize=auto;html=1;entryX=0.02;entryY=0.01;entryDx=0;entryDy=0;entryPerimeter=0;endArrow=none;endFill=0;strokeWidth=1;exitX=1;exitY=0.5;exitDx=0;exitDy=0;exitPerimeter=0;" edge="1" parent="JqamebFPjlk-KxzxT9SR-39" source="JqamebFPjlk-KxzxT9SR-11" target="JqamebFPjlk-KxzxT9SR-22">
          <mxGeometry relative="1" as="geometry" />
        </mxCell>
        <mxCell id="JqamebFPjlk-KxzxT9SR-32" style="edgeStyle=none;rounded=0;orthogonalLoop=1;jettySize=auto;html=1;entryX=1;entryY=0.65;entryDx=0;entryDy=0;entryPerimeter=0;endArrow=none;endFill=0;strokeWidth=1;" edge="1" parent="JqamebFPjlk-KxzxT9SR-39" source="JqamebFPjlk-KxzxT9SR-23" target="JqamebFPjlk-KxzxT9SR-7">
          <mxGeometry relative="1" as="geometry" />
        </mxCell>
        <mxCell id="JqamebFPjlk-KxzxT9SR-35" style="edgeStyle=none;rounded=0;orthogonalLoop=1;jettySize=auto;html=1;entryX=1;entryY=0.65;entryDx=0;entryDy=0;entryPerimeter=0;endArrow=none;endFill=0;strokeWidth=1;exitX=0;exitY=0.5;exitDx=0;exitDy=0;exitPerimeter=0;" edge="1" parent="JqamebFPjlk-KxzxT9SR-39" source="JqamebFPjlk-KxzxT9SR-23" target="JqamebFPjlk-KxzxT9SR-8">
          <mxGeometry relative="1" as="geometry" />
        </mxCell>
        <mxCell id="JqamebFPjlk-KxzxT9SR-36" style="edgeStyle=none;rounded=0;orthogonalLoop=1;jettySize=auto;html=1;entryX=1;entryY=0.65;entryDx=0;entryDy=0;entryPerimeter=0;endArrow=none;endFill=0;strokeWidth=1;exitX=0;exitY=0.5;exitDx=0;exitDy=0;exitPerimeter=0;" edge="1" parent="JqamebFPjlk-KxzxT9SR-39" source="JqamebFPjlk-KxzxT9SR-23" target="2">
          <mxGeometry relative="1" as="geometry" />
        </mxCell>
        <mxCell id="JqamebFPjlk-KxzxT9SR-23" value="SuperAD01" style="points=[[0.015,0.015,0],[0.985,0.015,0],[0.985,0.985,0],[0.015,0.985,0],[0.25,0,0],[0.5,0,0],[0.75,0,0],[1,0.25,0],[1,0.5,0],[1,0.75,0],[0.75,1,0],[0.5,1,0],[0.25,1,0],[0,0.75,0],[0,0.5,0],[0,0.25,0]];verticalLabelPosition=bottom;html=1;verticalAlign=top;align=center;pointerEvents=1;shape=mxgraph.cisco19.rect;prIcon=content_router;fillColor=#FAFAFA;strokeColor=#005073;" vertex="1" parent="JqamebFPjlk-KxzxT9SR-39">
          <mxGeometry x="270.29215384615384" y="44.51882845188285" width="79.49769230769232" height="79.49790794979079" as="geometry" />
        </mxCell>
        <mxCell id="JqamebFPjlk-KxzxT9SR-30" style="edgeStyle=none;rounded=0;orthogonalLoop=1;jettySize=auto;html=1;entryX=1;entryY=0.5;entryDx=0;entryDy=0;entryPerimeter=0;endArrow=none;endFill=0;strokeWidth=1;exitX=0;exitY=0.5;exitDx=0;exitDy=0;exitPerimeter=0;" edge="1" parent="JqamebFPjlk-KxzxT9SR-39" source="JqamebFPjlk-KxzxT9SR-11" target="JqamebFPjlk-KxzxT9SR-23">
          <mxGeometry relative="1" as="geometry" />
        </mxCell>
      </root>
    </mxGraphModel>
  </diagram>
  <diagram id="11XUPstILASlrjox_Rj9" name="第 2 页">
    <mxGraphModel dx="1278" dy="958" grid="1" gridSize="10" guides="1" tooltips="1" connect="1" arrows="1" fold="1" page="1" pageScale="1" pageWidth="827" pageHeight="1169" math="0" shadow="0">
      <root>
        <mxCell id="C37zxWyqBUvF_XrzcprT-0" />
        <mxCell id="C37zxWyqBUvF_XrzcprT-1" parent="C37zxWyqBUvF_XrzcprT-0" />
        <mxCell id="C37zxWyqBUvF_XrzcprT-2" value="" style="whiteSpace=wrap;html=1;fillColor=#dae8fc;fontSize=14;strokeColor=none;verticalAlign=top;" vertex="1" parent="C37zxWyqBUvF_XrzcprT-1">
          <mxGeometry x="396" y="328.5" width="450" height="253" as="geometry" />
        </mxCell>
        <mxCell id="C37zxWyqBUvF_XrzcprT-3" value="&lt;span style=&quot;font-family: &amp;#34;helvetica&amp;#34;&quot;&gt;ESXI host&lt;/span&gt;" style="shadow=0;dashed=0;html=1;strokeColor=none;fillColor=#4495D1;labelPosition=center;verticalLabelPosition=bottom;verticalAlign=top;shape=mxgraph.veeam.2d.vmware_host;fontSize=14;" vertex="1" parent="C37zxWyqBUvF_XrzcprT-1">
          <mxGeometry x="586" y="417" width="124" height="120" as="geometry" />
        </mxCell>
        <mxCell id="C37zxWyqBUvF_XrzcprT-4" style="rounded=0;html=1;startSize=10;endSize=10;jettySize=auto;orthogonalLoop=1;fontSize=14;endArrow=none;endFill=0;strokeColor=#808080;exitX=1;exitY=0.5;exitDx=0;exitDy=0;exitPerimeter=0;entryX=0;entryY=0.5;entryDx=0;entryDy=0;entryPerimeter=0;" edge="1" parent="C37zxWyqBUvF_XrzcprT-1" source="C37zxWyqBUvF_XrzcprT-27" target="C37zxWyqBUvF_XrzcprT-21">
          <mxGeometry relative="1" as="geometry">
            <mxPoint x="1123" y="724.9999999999998" as="sourcePoint" />
            <mxPoint x="1250" y="729" as="targetPoint" />
          </mxGeometry>
        </mxCell>
        <mxCell id="C37zxWyqBUvF_XrzcprT-5" value="CUC" style="shadow=0;dashed=0;html=1;strokeColor=none;fillColor=#4495D1;labelPosition=center;verticalLabelPosition=middle;verticalAlign=middle;shape=mxgraph.veeam.2d.cloud;fontSize=14;align=center;" vertex="1" parent="C37zxWyqBUvF_XrzcprT-1">
          <mxGeometry x="1530" y="701" width="69" height="48" as="geometry" />
        </mxCell>
        <mxCell id="C37zxWyqBUvF_XrzcprT-6" value="虚拟化环境物理连接拓扑图" style="text;strokeColor=none;fillColor=none;html=1;fontSize=24;fontStyle=1;verticalAlign=middle;align=center;" vertex="1" parent="C37zxWyqBUvF_XrzcprT-1">
          <mxGeometry x="470" y="240" width="1110" height="40" as="geometry" />
        </mxCell>
        <mxCell id="C37zxWyqBUvF_XrzcprT-7" style="edgeStyle=orthogonalEdgeStyle;rounded=0;orthogonalLoop=1;jettySize=auto;html=1;entryX=0.5;entryY=1;entryDx=0;entryDy=0;entryPerimeter=0;endArrow=none;endFill=0;strokeColor=#808080;" edge="1" parent="C37zxWyqBUvF_XrzcprT-1" source="C37zxWyqBUvF_XrzcprT-8" target="C37zxWyqBUvF_XrzcprT-43">
          <mxGeometry relative="1" as="geometry" />
        </mxCell>
        <mxCell id="C37zxWyqBUvF_XrzcprT-8" value="" style="points=[[0.015,0.015,0],[0.985,0.015,0],[0.985,0.985,0],[0.015,0.985,0],[0.25,0,0],[0.5,0,0],[0.75,0,0],[1,0.25,0],[1,0.5,0],[1,0.75,0],[0.75,1,0],[0.5,1,0],[0.25,1,0],[0,0.75,0],[0,0.5,0],[0,0.25,0]];verticalLabelPosition=bottom;html=1;verticalAlign=top;aspect=fixed;align=center;pointerEvents=1;shape=mxgraph.cisco19.rect;prIcon=l3_switch;fillColor=#FAFAFA;strokeColor=#005073;" vertex="1" parent="C37zxWyqBUvF_XrzcprT-1">
          <mxGeometry x="1048" y="690" width="70" height="70" as="geometry" />
        </mxCell>
        <mxCell id="C37zxWyqBUvF_XrzcprT-9" value="&lt;div style=&quot;&quot;&gt;eth0/24&lt;/div&gt;" style="text;whiteSpace=wrap;html=1;horizontal=0;align=center;verticalAlign=middle;labelBackgroundColor=#FFFF00;" vertex="1" parent="C37zxWyqBUvF_XrzcprT-1">
          <mxGeometry x="1118" y="739" width="16" height="24" as="geometry" />
        </mxCell>
        <mxCell id="C37zxWyqBUvF_XrzcprT-10" value="" style="whiteSpace=wrap;html=1;fillColor=#dae8fc;fontSize=14;strokeColor=none;verticalAlign=top;" vertex="1" parent="C37zxWyqBUvF_XrzcprT-1">
          <mxGeometry x="396" y="847" width="450" height="253" as="geometry" />
        </mxCell>
        <mxCell id="C37zxWyqBUvF_XrzcprT-11" value="&lt;span style=&quot;font-family: &amp;#34;helvetica&amp;#34;&quot;&gt;ESXI host&lt;/span&gt;" style="shadow=0;dashed=0;html=1;strokeColor=none;fillColor=#4495D1;labelPosition=center;verticalLabelPosition=bottom;verticalAlign=top;shape=mxgraph.veeam.2d.vmware_host;fontSize=14;" vertex="1" parent="C37zxWyqBUvF_XrzcprT-1">
          <mxGeometry x="586" y="930" width="124" height="120" as="geometry" />
        </mxCell>
        <mxCell id="C37zxWyqBUvF_XrzcprT-12" value="" style="whiteSpace=wrap;html=1;fillColor=#dae8fc;fontSize=14;strokeColor=none;verticalAlign=top;" vertex="1" parent="C37zxWyqBUvF_XrzcprT-1">
          <mxGeometry x="396" y="587" width="450" height="253" as="geometry" />
        </mxCell>
        <mxCell id="C37zxWyqBUvF_XrzcprT-13" value="&lt;span style=&quot;font-family: &amp;#34;helvetica&amp;#34;&quot;&gt;ESXI host&lt;/span&gt;" style="shadow=0;dashed=0;html=1;strokeColor=none;fillColor=#4495D1;labelPosition=center;verticalLabelPosition=bottom;verticalAlign=top;shape=mxgraph.veeam.2d.vmware_host;fontSize=14;" vertex="1" parent="C37zxWyqBUvF_XrzcprT-1">
          <mxGeometry x="586" y="674" width="124" height="120" as="geometry" />
        </mxCell>
        <mxCell id="C37zxWyqBUvF_XrzcprT-14" value="&lt;div style=&quot;&quot;&gt;mgmt：20.0.100.2/24&lt;/div&gt;&lt;div style=&quot;&quot;&gt;gw：20.0.100.254&lt;/div&gt;" style="text;whiteSpace=wrap;html=1;align=left;" vertex="1" parent="C37zxWyqBUvF_XrzcprT-1">
          <mxGeometry x="476" y="763" width="124" height="30" as="geometry" />
        </mxCell>
        <mxCell id="C37zxWyqBUvF_XrzcprT-15" style="edgeStyle=orthogonalEdgeStyle;rounded=0;elbow=vertical;html=1;startSize=10;endArrow=none;endFill=0;endSize=10;jettySize=auto;orthogonalLoop=1;strokeColor=#808080;fontSize=14;entryX=0.839;entryY=0.943;entryDx=0;entryDy=0;entryPerimeter=0;exitX=0.006;exitY=0.383;exitDx=0;exitDy=0;exitPerimeter=0;" edge="1" parent="C37zxWyqBUvF_XrzcprT-1" source="C37zxWyqBUvF_XrzcprT-8" target="C37zxWyqBUvF_XrzcprT-3">
          <mxGeometry relative="1" as="geometry">
            <mxPoint x="654.086" y="537.9999999999998" as="targetPoint" />
            <Array as="points">
              <mxPoint x="940" y="717" />
              <mxPoint x="940" y="530" />
            </Array>
            <mxPoint x="1048" y="715" as="sourcePoint" />
          </mxGeometry>
        </mxCell>
        <mxCell id="C37zxWyqBUvF_XrzcprT-16" style="edgeStyle=orthogonalEdgeStyle;rounded=0;elbow=vertical;html=1;startSize=10;endArrow=none;endFill=0;endSize=10;jettySize=auto;orthogonalLoop=1;strokeColor=#808080;fontSize=14;exitX=0.004;exitY=0.303;exitDx=0;exitDy=0;exitPerimeter=0;" edge="1" parent="C37zxWyqBUvF_XrzcprT-1" source="C37zxWyqBUvF_XrzcprT-8">
          <mxGeometry relative="1" as="geometry">
            <mxPoint x="654" y="525" as="targetPoint" />
            <Array as="points">
              <mxPoint x="944" y="711" />
              <mxPoint x="944" y="525" />
            </Array>
            <mxPoint x="982" y="712.8499999999999" as="sourcePoint" />
          </mxGeometry>
        </mxCell>
        <mxCell id="C37zxWyqBUvF_XrzcprT-17" style="edgeStyle=orthogonalEdgeStyle;rounded=0;elbow=vertical;html=1;startSize=10;endArrow=none;endFill=0;endSize=10;jettySize=auto;orthogonalLoop=1;strokeColor=#808080;fontSize=14;entryX=0.839;entryY=0.95;entryDx=0;entryDy=0;entryPerimeter=0;exitX=0.001;exitY=0.699;exitDx=0;exitDy=0;exitPerimeter=0;" edge="1" parent="C37zxWyqBUvF_XrzcprT-1" source="C37zxWyqBUvF_XrzcprT-8" target="C37zxWyqBUvF_XrzcprT-11">
          <mxGeometry relative="1" as="geometry">
            <mxPoint x="648.686" y="1033.96" as="targetPoint" />
            <Array as="points">
              <mxPoint x="955" y="739" />
              <mxPoint x="955" y="1044" />
            </Array>
            <mxPoint x="983" y="731.5" as="sourcePoint" />
          </mxGeometry>
        </mxCell>
        <mxCell id="C37zxWyqBUvF_XrzcprT-18" style="edgeStyle=orthogonalEdgeStyle;rounded=0;elbow=vertical;html=1;startSize=10;endArrow=none;endFill=0;endSize=10;jettySize=auto;orthogonalLoop=1;strokeColor=#808080;fontSize=14;exitX=0.003;exitY=0.613;exitDx=0;exitDy=0;exitPerimeter=0;entryX=0.838;entryY=0.921;entryDx=0;entryDy=0;entryPerimeter=0;" edge="1" parent="C37zxWyqBUvF_XrzcprT-1" source="C37zxWyqBUvF_XrzcprT-8" target="C37zxWyqBUvF_XrzcprT-11">
          <mxGeometry relative="1" as="geometry">
            <mxPoint x="654" y="1041" as="targetPoint" />
            <Array as="points">
              <mxPoint x="950" y="733" />
              <mxPoint x="950" y="1041" />
            </Array>
            <mxPoint x="982" y="735.8000000000001" as="sourcePoint" />
          </mxGeometry>
        </mxCell>
        <mxCell id="C37zxWyqBUvF_XrzcprT-19" value="&lt;div&gt;mgmt：20.0.100.3/24&lt;/div&gt;&lt;div&gt;gw：20.0.100.254&lt;/div&gt;" style="text;whiteSpace=wrap;html=1;align=left;" vertex="1" parent="C37zxWyqBUvF_XrzcprT-1">
          <mxGeometry x="476" y="1020" width="124" height="30" as="geometry" />
        </mxCell>
        <mxCell id="C37zxWyqBUvF_XrzcprT-20" value="&lt;div&gt;mgmt：20.0.100.1/24&lt;/div&gt;&lt;div&gt;gw：20.0.100.254&lt;/div&gt;" style="text;whiteSpace=wrap;html=1;align=left;" vertex="1" parent="C37zxWyqBUvF_XrzcprT-1">
          <mxGeometry x="476" y="507" width="124" height="30" as="geometry" />
        </mxCell>
        <mxCell id="C37zxWyqBUvF_XrzcprT-21" value="" style="points=[[0.5,0,0],[1,0.5,0],[0.5,1,0],[0,0.5,0],[0.145,0.145,0],[0.8555,0.145,0],[0.855,0.8555,0],[0.145,0.855,0]];verticalLabelPosition=bottom;html=1;verticalAlign=top;aspect=fixed;align=center;pointerEvents=1;shape=mxgraph.cisco19.rect;prIcon=router;fillColor=#FAFAFA;strokeColor=#005073;" vertex="1" parent="C37zxWyqBUvF_XrzcprT-1">
          <mxGeometry x="1310" y="690" width="70" height="70" as="geometry" />
        </mxCell>
        <mxCell id="C37zxWyqBUvF_XrzcprT-22" style="rounded=0;html=1;startSize=10;endSize=10;jettySize=auto;orthogonalLoop=1;fontSize=14;endArrow=none;endFill=0;strokeColor=#808080;exitX=1;exitY=0.5;exitDx=0;exitDy=0;exitPerimeter=0;entryX=-0.017;entryY=0.507;entryDx=0;entryDy=0;entryPerimeter=0;" edge="1" parent="C37zxWyqBUvF_XrzcprT-1" source="C37zxWyqBUvF_XrzcprT-36" target="C37zxWyqBUvF_XrzcprT-5">
          <mxGeometry relative="1" as="geometry">
            <mxPoint x="1136" y="735" as="sourcePoint" />
            <mxPoint x="1350" y="724" as="targetPoint" />
          </mxGeometry>
        </mxCell>
        <mxCell id="C37zxWyqBUvF_XrzcprT-23" value="&lt;div style=&quot;&quot;&gt;&lt;font face=&quot;helvetica&quot;&gt;&lt;span style=&quot;font-size: 14px&quot;&gt;Trunk&lt;/span&gt;&lt;/font&gt;&lt;/div&gt;" style="text;whiteSpace=wrap;html=1;labelBackgroundColor=#66FFFF;rounded=1;align=center;verticalAlign=middle;" vertex="1" parent="C37zxWyqBUvF_XrzcprT-1">
          <mxGeometry x="796" y="511" width="50" height="30" as="geometry" />
        </mxCell>
        <mxCell id="C37zxWyqBUvF_XrzcprT-24" value="&lt;div style=&quot;&quot;&gt;&lt;font face=&quot;helvetica&quot;&gt;&lt;span style=&quot;font-size: 14px&quot;&gt;Trunk&lt;/span&gt;&lt;/font&gt;&lt;/div&gt;" style="text;whiteSpace=wrap;html=1;labelBackgroundColor=#33FFFF;align=center;verticalAlign=middle;" vertex="1" parent="C37zxWyqBUvF_XrzcprT-1">
          <mxGeometry x="794" y="1026" width="50" height="30" as="geometry" />
        </mxCell>
        <mxCell id="C37zxWyqBUvF_XrzcprT-25" style="edgeStyle=orthogonalEdgeStyle;rounded=0;elbow=vertical;html=1;startSize=10;endArrow=none;endFill=0;endSize=10;jettySize=auto;orthogonalLoop=1;strokeColor=#808080;fontSize=14;exitX=-0.001;exitY=0.461;exitDx=0;exitDy=0;exitPerimeter=0;" edge="1" parent="C37zxWyqBUvF_XrzcprT-1" source="C37zxWyqBUvF_XrzcprT-8">
          <mxGeometry relative="1" as="geometry">
            <mxPoint x="690" y="782" as="targetPoint" />
            <Array as="points">
              <mxPoint x="940" y="723" />
              <mxPoint x="940" y="782" />
            </Array>
            <mxPoint x="1047.9499999999998" y="723.05" as="sourcePoint" />
          </mxGeometry>
        </mxCell>
        <mxCell id="C37zxWyqBUvF_XrzcprT-26" style="edgeStyle=orthogonalEdgeStyle;rounded=0;elbow=vertical;html=1;startSize=10;endArrow=none;endFill=0;endSize=10;jettySize=auto;orthogonalLoop=1;strokeColor=#808080;fontSize=14;exitX=0.001;exitY=0.542;exitDx=0;exitDy=0;exitPerimeter=0;entryX=0.838;entryY=0.937;entryDx=0;entryDy=0;entryPerimeter=0;" edge="1" parent="C37zxWyqBUvF_XrzcprT-1" source="C37zxWyqBUvF_XrzcprT-8" target="C37zxWyqBUvF_XrzcprT-13">
          <mxGeometry relative="1" as="geometry">
            <mxPoint x="654.0360000000001" y="785.7199999999998" as="targetPoint" />
            <Array as="points">
              <mxPoint x="945" y="728" />
              <mxPoint x="945" y="786" />
            </Array>
            <mxPoint x="1047.9499999999998" y="728.05" as="sourcePoint" />
          </mxGeometry>
        </mxCell>
        <mxCell id="C37zxWyqBUvF_XrzcprT-27" value="&lt;div style=&quot;&quot;&gt;gw:192.168.0.1&lt;/div&gt;" style="text;whiteSpace=wrap;html=1;horizontal=1;labelBackgroundColor=#FF3333;align=center;verticalAlign=middle;rounded=1;fontColor=#FFFFFF;" vertex="1" parent="C37zxWyqBUvF_XrzcprT-1">
          <mxGeometry x="1220" y="710" width="83" height="30" as="geometry" />
        </mxCell>
        <mxCell id="C37zxWyqBUvF_XrzcprT-28" style="rounded=0;html=1;startSize=10;endSize=10;jettySize=auto;orthogonalLoop=1;fontSize=14;endArrow=none;endFill=0;strokeColor=#808080;exitX=1;exitY=0.5;exitDx=0;exitDy=0;exitPerimeter=0;entryX=0;entryY=0.5;entryDx=0;entryDy=0;entryPerimeter=0;" edge="1" parent="C37zxWyqBUvF_XrzcprT-1" source="C37zxWyqBUvF_XrzcprT-29" target="C37zxWyqBUvF_XrzcprT-27">
          <mxGeometry relative="1" as="geometry">
            <mxPoint x="1098" y="725" as="sourcePoint" />
            <mxPoint x="1290.0000000000002" y="725" as="targetPoint" />
          </mxGeometry>
        </mxCell>
        <mxCell id="C37zxWyqBUvF_XrzcprT-29" value="&lt;div style=&quot;&quot;&gt;Vlan192&lt;/div&gt;" style="text;whiteSpace=wrap;html=1;horizontal=1;align=center;verticalAlign=middle;labelBackgroundColor=#66FFFF;rounded=1;" vertex="1" parent="C37zxWyqBUvF_XrzcprT-1">
          <mxGeometry x="1138" y="710" width="50" height="30" as="geometry" />
        </mxCell>
        <mxCell id="C37zxWyqBUvF_XrzcprT-30" style="rounded=0;html=1;startSize=10;endSize=10;jettySize=auto;orthogonalLoop=1;fontSize=14;endArrow=none;endFill=0;strokeColor=#808080;exitX=1;exitY=0.5;exitDx=0;exitDy=0;exitPerimeter=0;entryX=0;entryY=0.5;entryDx=0;entryDy=0;entryPerimeter=0;" edge="1" parent="C37zxWyqBUvF_XrzcprT-1" source="C37zxWyqBUvF_XrzcprT-8" target="C37zxWyqBUvF_XrzcprT-29">
          <mxGeometry relative="1" as="geometry">
            <mxPoint x="1098" y="725" as="sourcePoint" />
            <mxPoint x="1221" y="725" as="targetPoint" />
          </mxGeometry>
        </mxCell>
        <mxCell id="C37zxWyqBUvF_XrzcprT-31" value="&lt;div style=&quot;&quot;&gt;&lt;font face=&quot;helvetica&quot;&gt;&lt;span style=&quot;font-size: 14px&quot;&gt;Trunk&lt;/span&gt;&lt;/font&gt;&lt;/div&gt;" style="text;whiteSpace=wrap;html=1;labelBackgroundColor=#33FFFF;align=center;verticalAlign=middle;rounded=1;glass=0;shadow=0;" vertex="1" parent="C37zxWyqBUvF_XrzcprT-1">
          <mxGeometry x="796" y="767" width="50" height="30" as="geometry" />
        </mxCell>
        <mxCell id="C37zxWyqBUvF_XrzcprT-32" value="eth0/20-21" style="text;horizontal=1;labelBackgroundColor=#FFFF00;verticalAlign=middle;whiteSpace=wrap;html=1;rounded=1;align=center;" vertex="1" parent="C37zxWyqBUvF_XrzcprT-1">
          <mxGeometry x="872" y="772.5" width="60" height="19" as="geometry" />
        </mxCell>
        <mxCell id="C37zxWyqBUvF_XrzcprT-33" value="eth0/22-23" style="text;horizontal=0;labelBackgroundColor=#FFFF00;verticalAlign=middle;whiteSpace=wrap;html=1;rounded=1;align=center;" vertex="1" parent="C37zxWyqBUvF_XrzcprT-1">
          <mxGeometry x="946" y="797" width="10" height="69" as="geometry" />
        </mxCell>
        <mxCell id="C37zxWyqBUvF_XrzcprT-34" value="eth0/18-19" style="text;horizontal=0;labelBackgroundColor=#FFFF00;verticalAlign=middle;whiteSpace=wrap;html=1;rounded=1;align=center;" vertex="1" parent="C37zxWyqBUvF_XrzcprT-1">
          <mxGeometry x="936" y="632" width="10" height="69" as="geometry" />
        </mxCell>
        <mxCell id="C37zxWyqBUvF_XrzcprT-35" style="rounded=0;html=1;startSize=10;endSize=10;jettySize=auto;orthogonalLoop=1;fontSize=14;endArrow=none;endFill=0;strokeColor=#808080;exitX=1;exitY=0.5;exitDx=0;exitDy=0;exitPerimeter=0;entryX=-0.017;entryY=0.507;entryDx=0;entryDy=0;entryPerimeter=0;" edge="1" parent="C37zxWyqBUvF_XrzcprT-1" source="C37zxWyqBUvF_XrzcprT-21" target="C37zxWyqBUvF_XrzcprT-36">
          <mxGeometry relative="1" as="geometry">
            <mxPoint x="1390" y="725" as="sourcePoint" />
            <mxPoint x="1474.8269999999998" y="725.336" as="targetPoint" />
          </mxGeometry>
        </mxCell>
        <mxCell id="C37zxWyqBUvF_XrzcprT-36" value="&lt;div&gt;ppoe:112.64.148.210&lt;/div&gt;" style="text;whiteSpace=wrap;html=1;horizontal=1;labelBackgroundColor=#FF3333;align=center;verticalAlign=middle;rounded=1;fontColor=#FFFFFF;" vertex="1" parent="C37zxWyqBUvF_XrzcprT-1">
          <mxGeometry x="1399" y="710" width="83" height="30" as="geometry" />
        </mxCell>
        <mxCell id="C37zxWyqBUvF_XrzcprT-37" style="edgeStyle=orthogonalEdgeStyle;rounded=0;orthogonalLoop=1;jettySize=auto;html=1;entryX=0.5;entryY=1;entryDx=0;entryDy=0;entryPerimeter=0;endArrow=none;endFill=0;strokeColor=#808080;" edge="1" parent="C37zxWyqBUvF_XrzcprT-1" source="C37zxWyqBUvF_XrzcprT-40" target="C37zxWyqBUvF_XrzcprT-8">
          <mxGeometry relative="1" as="geometry" />
        </mxCell>
        <mxCell id="C37zxWyqBUvF_XrzcprT-38" style="edgeStyle=orthogonalEdgeStyle;rounded=0;orthogonalLoop=1;jettySize=auto;html=1;exitX=0.25;exitY=0;exitDx=0;exitDy=0;exitPerimeter=0;entryX=0.25;entryY=1;entryDx=0;entryDy=0;entryPerimeter=0;endArrow=none;endFill=0;strokeColor=#808080;fontColor=#FFFFFF;" edge="1" parent="C37zxWyqBUvF_XrzcprT-1" source="C37zxWyqBUvF_XrzcprT-40" target="C37zxWyqBUvF_XrzcprT-8">
          <mxGeometry relative="1" as="geometry" />
        </mxCell>
        <mxCell id="C37zxWyqBUvF_XrzcprT-39" style="edgeStyle=orthogonalEdgeStyle;rounded=0;orthogonalLoop=1;jettySize=auto;html=1;exitX=0.75;exitY=0;exitDx=0;exitDy=0;exitPerimeter=0;entryX=0.75;entryY=1;entryDx=0;entryDy=0;entryPerimeter=0;endArrow=none;endFill=0;strokeColor=#808080;fontColor=#FFFFFF;" edge="1" parent="C37zxWyqBUvF_XrzcprT-1" source="C37zxWyqBUvF_XrzcprT-40" target="C37zxWyqBUvF_XrzcprT-8">
          <mxGeometry relative="1" as="geometry" />
        </mxCell>
        <mxCell id="C37zxWyqBUvF_XrzcprT-40" value="" style="points=[[0.015,0.015,0],[0.985,0.015,0],[0.985,0.985,0],[0.015,0.985,0],[0.25,0,0],[0.5,0,0],[0.75,0,0],[1,0.25,0],[1,0.5,0],[1,0.75,0],[0.75,1,0],[0.5,1,0],[0.25,1,0],[0,0.75,0],[0,0.5,0],[0,0.25,0]];verticalLabelPosition=bottom;html=1;verticalAlign=top;align=center;pointerEvents=1;shape=mxgraph.cisco19.rect;prIcon=content_router;fillColor=#FAFAFA;strokeColor=#005073;rounded=1;shadow=0;glass=0;labelBackgroundColor=#33FFFF;" vertex="1" parent="C37zxWyqBUvF_XrzcprT-1">
          <mxGeometry x="1048" y="969" width="70" height="70" as="geometry" />
        </mxCell>
        <mxCell id="C37zxWyqBUvF_XrzcprT-41" style="edgeStyle=orthogonalEdgeStyle;rounded=0;orthogonalLoop=1;jettySize=auto;html=1;exitX=0.25;exitY=1;exitDx=0;exitDy=0;exitPerimeter=0;entryX=0.25;entryY=0;entryDx=0;entryDy=0;entryPerimeter=0;endArrow=none;endFill=0;strokeColor=#808080;fontColor=#FFFFFF;" edge="1" parent="C37zxWyqBUvF_XrzcprT-1" source="C37zxWyqBUvF_XrzcprT-43" target="C37zxWyqBUvF_XrzcprT-8">
          <mxGeometry relative="1" as="geometry" />
        </mxCell>
        <mxCell id="C37zxWyqBUvF_XrzcprT-42" style="edgeStyle=orthogonalEdgeStyle;rounded=0;orthogonalLoop=1;jettySize=auto;html=1;exitX=0.75;exitY=1;exitDx=0;exitDy=0;exitPerimeter=0;entryX=0.75;entryY=0;entryDx=0;entryDy=0;entryPerimeter=0;endArrow=none;endFill=0;strokeColor=#808080;fontColor=#FFFFFF;" edge="1" parent="C37zxWyqBUvF_XrzcprT-1" source="C37zxWyqBUvF_XrzcprT-43" target="C37zxWyqBUvF_XrzcprT-8">
          <mxGeometry relative="1" as="geometry" />
        </mxCell>
        <mxCell id="C37zxWyqBUvF_XrzcprT-43" value="" style="points=[[0.015,0.015,0],[0.985,0.015,0],[0.985,0.985,0],[0.015,0.985,0],[0.25,0,0],[0.5,0,0],[0.75,0,0],[1,0.25,0],[1,0.5,0],[1,0.75,0],[0.75,1,0],[0.5,1,0],[0.25,1,0],[0,0.75,0],[0,0.5,0],[0,0.25,0]];verticalLabelPosition=bottom;html=1;verticalAlign=top;align=center;pointerEvents=1;shape=mxgraph.cisco19.rect;prIcon=content_router;fillColor=#FAFAFA;strokeColor=#005073;rounded=1;shadow=0;glass=0;labelBackgroundColor=#33FFFF;" vertex="1" parent="C37zxWyqBUvF_XrzcprT-1">
          <mxGeometry x="1048" y="412" width="70" height="70" as="geometry" />
        </mxCell>
        <mxCell id="C37zxWyqBUvF_XrzcprT-44" value="&lt;span style=&quot;color: rgb(0 , 0 , 0) ; font-family: &amp;#34;helvetica&amp;#34; ; font-size: 14px ; font-style: normal ; font-weight: 400 ; letter-spacing: normal ; text-align: center ; text-indent: 0px ; text-transform: none ; word-spacing: 0px ; background-color: rgb(248 , 249 , 250) ; display: inline ; float: none&quot;&gt;SuperAD01&lt;/span&gt;" style="text;whiteSpace=wrap;html=1;" vertex="1" parent="C37zxWyqBUvF_XrzcprT-1">
          <mxGeometry x="1044" y="1039" width="80" height="30" as="geometry" />
        </mxCell>
        <mxCell id="C37zxWyqBUvF_XrzcprT-45" value="&lt;span style=&quot;color: rgb(0 , 0 , 0) ; font-family: &amp;#34;helvetica&amp;#34; ; font-size: 14px ; font-style: normal ; font-weight: 400 ; letter-spacing: normal ; text-align: center ; text-indent: 0px ; text-transform: none ; word-spacing: 0px ; background-color: rgb(248 , 249 , 250) ; display: inline ; float: none&quot;&gt;SuperAD02&lt;/span&gt;" style="text;whiteSpace=wrap;html=1;" vertex="1" parent="C37zxWyqBUvF_XrzcprT-1">
          <mxGeometry x="1044" y="387" width="80" height="30" as="geometry" />
        </mxCell>
        <mxCell id="C37zxWyqBUvF_XrzcprT-46" value="&lt;div&gt;mgmt：20.0.100.10/24&lt;/div&gt;&lt;div&gt;gw：20.0.100.254&lt;/div&gt;" style="text;whiteSpace=wrap;html=1;align=left;" vertex="1" parent="C37zxWyqBUvF_XrzcprT-1">
          <mxGeometry x="1120" y="999" width="140" height="30" as="geometry" />
        </mxCell>
        <mxCell id="C37zxWyqBUvF_XrzcprT-47" value="&lt;div&gt;mgmt：20.0.100.11/24&lt;/div&gt;&lt;div&gt;gw：20.0.100.254&lt;/div&gt;" style="text;whiteSpace=wrap;html=1;align=left;" vertex="1" parent="C37zxWyqBUvF_XrzcprT-1">
          <mxGeometry x="1120" y="412" width="130" height="30" as="geometry" />
        </mxCell>
        <mxCell id="C37zxWyqBUvF_XrzcprT-48" value="&lt;div style=&quot;font-size: 10px&quot;&gt;mgmt&lt;/div&gt;" style="text;whiteSpace=wrap;html=1;horizontal=0;align=center;verticalAlign=middle;labelBackgroundColor=#FFFF00;fontSize=10;" vertex="1" parent="C37zxWyqBUvF_XrzcprT-1">
          <mxGeometry x="1092" y="941" width="16" height="24" as="geometry" />
        </mxCell>
        <mxCell id="C37zxWyqBUvF_XrzcprT-49" value="&lt;div style=&quot;font-size: 10px&quot;&gt;eth0/1&lt;/div&gt;" style="text;whiteSpace=wrap;html=1;horizontal=0;align=center;verticalAlign=middle;labelBackgroundColor=#FFFF00;fontSize=10;" vertex="1" parent="C37zxWyqBUvF_XrzcprT-1">
          <mxGeometry x="1075" y="939" width="16" height="24" as="geometry" />
        </mxCell>
        <mxCell id="C37zxWyqBUvF_XrzcprT-50" value="&lt;div style=&quot;font-size: 10px&quot;&gt;eth0/5&lt;/div&gt;" style="text;whiteSpace=wrap;html=1;horizontal=0;align=center;verticalAlign=middle;labelBackgroundColor=#FFFF00;fontSize=10;" vertex="1" parent="C37zxWyqBUvF_XrzcprT-1">
          <mxGeometry x="1057" y="939" width="16" height="24" as="geometry" />
        </mxCell>
        <mxCell id="C37zxWyqBUvF_XrzcprT-51" value="&lt;div style=&quot;font-size: 10px&quot;&gt;mgmt&lt;/div&gt;" style="text;whiteSpace=wrap;html=1;horizontal=0;align=center;verticalAlign=middle;labelBackgroundColor=#FFFF00;fontSize=10;" vertex="1" parent="C37zxWyqBUvF_XrzcprT-1">
          <mxGeometry x="1093" y="487" width="16" height="24" as="geometry" />
        </mxCell>
        <mxCell id="C37zxWyqBUvF_XrzcprT-52" value="&lt;div style=&quot;font-size: 10px&quot;&gt;eth0/1&lt;/div&gt;" style="text;whiteSpace=wrap;html=1;horizontal=0;align=center;verticalAlign=middle;labelBackgroundColor=#FFFF00;fontSize=10;" vertex="1" parent="C37zxWyqBUvF_XrzcprT-1">
          <mxGeometry x="1075" y="488" width="16" height="24" as="geometry" />
        </mxCell>
        <mxCell id="C37zxWyqBUvF_XrzcprT-53" value="&lt;div style=&quot;font-size: 10px&quot;&gt;eth0/5&lt;/div&gt;" style="text;whiteSpace=wrap;html=1;horizontal=0;align=center;verticalAlign=middle;labelBackgroundColor=#FFFF00;fontSize=10;" vertex="1" parent="C37zxWyqBUvF_XrzcprT-1">
          <mxGeometry x="1057" y="488" width="16" height="24" as="geometry" />
        </mxCell>
        <mxCell id="C37zxWyqBUvF_XrzcprT-54" value="&lt;div style=&quot;font-size: 10px&quot;&gt;eth0/17&lt;/div&gt;" style="text;whiteSpace=wrap;html=1;horizontal=0;align=center;verticalAlign=middle;labelBackgroundColor=#FFFF00;fontSize=10;" vertex="1" parent="C37zxWyqBUvF_XrzcprT-1">
          <mxGeometry x="1055" y="656.5" width="16" height="24" as="geometry" />
        </mxCell>
        <mxCell id="C37zxWyqBUvF_XrzcprT-55" value="&lt;div style=&quot;font-size: 10px&quot;&gt;eth0/16&lt;/div&gt;" style="text;whiteSpace=wrap;html=1;horizontal=0;align=center;verticalAlign=middle;labelBackgroundColor=#FFFF00;fontSize=10;" vertex="1" parent="C37zxWyqBUvF_XrzcprT-1">
          <mxGeometry x="1057" y="769" width="16" height="24" as="geometry" />
        </mxCell>
        <mxCell id="C37zxWyqBUvF_XrzcprT-56" value="&lt;div style=&quot;font-size: 10px&quot;&gt;eth0/14&lt;/div&gt;" style="text;whiteSpace=wrap;html=1;horizontal=0;align=center;verticalAlign=middle;labelBackgroundColor=#FFFF00;fontSize=10;" vertex="1" parent="C37zxWyqBUvF_XrzcprT-1">
          <mxGeometry x="1075" y="769" width="16" height="24" as="geometry" />
        </mxCell>
        <mxCell id="C37zxWyqBUvF_XrzcprT-57" value="&lt;div&gt;&lt;font style=&quot;font-size: 12px&quot;&gt;Vlan1000&lt;/font&gt;&lt;/div&gt;" style="text;whiteSpace=wrap;html=1;horizontal=0;align=center;verticalAlign=middle;labelBackgroundColor=#66FFFF;rounded=1;" vertex="1" parent="C37zxWyqBUvF_XrzcprT-1">
          <mxGeometry x="1095" y="836" width="12" height="30" as="geometry" />
        </mxCell>
        <mxCell id="C37zxWyqBUvF_XrzcprT-58" value="&lt;div&gt;&lt;font style=&quot;font-size: 12px&quot;&gt;Vlan1000&lt;/font&gt;&lt;/div&gt;" style="text;whiteSpace=wrap;html=1;horizontal=0;align=center;verticalAlign=middle;labelBackgroundColor=#66FFFF;rounded=1;" vertex="1" parent="C37zxWyqBUvF_XrzcprT-1">
          <mxGeometry x="1095" y="590" width="12" height="30" as="geometry" />
        </mxCell>
        <mxCell id="C37zxWyqBUvF_XrzcprT-59" value="&lt;div&gt;&lt;font style=&quot;font-size: 12px&quot;&gt;Vlan600&lt;/font&gt;&lt;/div&gt;" style="text;whiteSpace=wrap;html=1;horizontal=0;align=center;verticalAlign=middle;labelBackgroundColor=#66FFFF;rounded=1;" vertex="1" parent="C37zxWyqBUvF_XrzcprT-1">
          <mxGeometry x="1078" y="590" width="12" height="30" as="geometry" />
        </mxCell>
        <mxCell id="C37zxWyqBUvF_XrzcprT-60" value="&lt;div&gt;&lt;font style=&quot;font-size: 12px&quot;&gt;Vlan100/200/300&lt;/font&gt;&lt;/div&gt;" style="text;whiteSpace=wrap;html=1;horizontal=0;align=center;verticalAlign=middle;labelBackgroundColor=#66FFFF;rounded=1;" vertex="1" parent="C37zxWyqBUvF_XrzcprT-1">
          <mxGeometry x="1059" y="582" width="12" height="30" as="geometry" />
        </mxCell>
        <mxCell id="C37zxWyqBUvF_XrzcprT-61" value="&lt;div&gt;&lt;font style=&quot;font-size: 12px&quot;&gt;Vlan600&lt;/font&gt;&lt;/div&gt;" style="text;whiteSpace=wrap;html=1;horizontal=0;align=center;verticalAlign=middle;labelBackgroundColor=#66FFFF;rounded=1;" vertex="1" parent="C37zxWyqBUvF_XrzcprT-1">
          <mxGeometry x="1077" y="836" width="12" height="30" as="geometry" />
        </mxCell>
        <mxCell id="C37zxWyqBUvF_XrzcprT-62" value="&lt;div&gt;&lt;font style=&quot;font-size: 12px&quot;&gt;Vlan100/200/300&lt;/font&gt;&lt;/div&gt;" style="text;whiteSpace=wrap;html=1;horizontal=0;align=center;verticalAlign=middle;labelBackgroundColor=#66FFFF;rounded=1;" vertex="1" parent="C37zxWyqBUvF_XrzcprT-1">
          <mxGeometry x="1059" y="839" width="12" height="30" as="geometry" />
        </mxCell>
        <mxCell id="C37zxWyqBUvF_XrzcprT-63" value="&lt;div style=&quot;font-size: 10px&quot;&gt;eth0/15&lt;/div&gt;" style="text;whiteSpace=wrap;html=1;horizontal=0;align=center;verticalAlign=middle;labelBackgroundColor=#FFFF00;fontSize=10;" vertex="1" parent="C37zxWyqBUvF_XrzcprT-1">
          <mxGeometry x="1075" y="656.5" width="16" height="24" as="geometry" />
        </mxCell>
        <mxCell id="C37zxWyqBUvF_XrzcprT-64" value="&lt;div style=&quot;font-size: 10px&quot;&gt;eth0/1-2&lt;/div&gt;" style="text;whiteSpace=wrap;html=1;horizontal=0;align=center;verticalAlign=middle;labelBackgroundColor=#FFFF00;fontSize=10;" vertex="1" parent="C37zxWyqBUvF_XrzcprT-1">
          <mxGeometry x="1090" y="637" width="20" height="59" as="geometry" />
        </mxCell>
        <mxCell id="C37zxWyqBUvF_XrzcprT-65" value="&lt;div style=&quot;font-size: 10px&quot;&gt;eth0/3-4&lt;/div&gt;" style="text;whiteSpace=wrap;html=1;horizontal=0;align=center;verticalAlign=middle;labelBackgroundColor=#FFFF00;fontSize=10;" vertex="1" parent="C37zxWyqBUvF_XrzcprT-1">
          <mxGeometry x="1090" y="754.5" width="20" height="59" as="geometry" />
        </mxCell>
        <mxCell id="C37zxWyqBUvF_XrzcprT-66" value="&lt;div style=&quot;text-align: center&quot;&gt;&lt;font face=&quot;helvetica&quot;&gt;&lt;span style=&quot;font-size: 14px&quot;&gt;华为S5735S&lt;/span&gt;&lt;/font&gt;&lt;/div&gt;" style="text;whiteSpace=wrap;html=1;" vertex="1" parent="C37zxWyqBUvF_XrzcprT-1">
          <mxGeometry x="1124" y="678" width="80" height="30" as="geometry" />
        </mxCell>
      </root>
    </mxGraphModel>
  </diagram>
</mxfile>
